<svg xmlns="http://www.w3.org/2000/svg" width="1920" height="1080" viewBox="0 0 1920 1080">
  <defs>
    <radialGradient id="g1" cx="20%" cy="20%" r="80%">
      <stop offset="0" stop-color="#0a0a14"></stop><stop offset="0.6" stop-color="#06060c"></stop><stop offset="1" stop-color="#000"></stop>
    </radialGradient>
    <filter id="glow" x="-20%" y="-20%" width="140%" height="140%"><feGaussianBlur stdDeviation="0.6"></feGaussianBlur></filter>
    <pattern id="scan" width="2" height="4" patternUnits="userSpaceOnUse"><rect width="2" height="1" fill="#0b0b12"></rect></pattern>
  </defs>
  <rect width="100%" height="100%" fill="url(#g1)"></rect>
  <rect width="100%" height="100%" fill="url(#scan)" opacity=".07"></rect>
  <g fill="#fff" filter="url(#glow)" opacity=".9">
    <circle cx="120" cy="80" r="1.2"></circle><circle cx="340" cy="210" r="1"></circle><circle cx="720" cy="160" r="1.1"></circle>
    <circle cx="1040" cy="90" r="1"></circle><circle cx="1460" cy="140" r="1.2"></circle><circle cx="1800" cy="80" r="1.1"></circle>
    <circle cx="220" cy="420" r="1"></circle><circle cx="640" cy="360" r="1.2"></circle><circle cx="980" cy="400" r="1.1"></circle>
    <circle cx="1320" cy="350" r="1.2"></circle><circle cx="1680" cy="420" r="1.1"></circle><circle cx="260" cy="760" r="1.2"></circle>
    <circle cx="600" cy="680" r="1"></circle><circle cx="920" cy="720" r="1.2"></circle><circle cx="1260" cy="760" r="1.1"></circle><circle cx="1640" cy="700" r="1.2"></circle>
  </g>
  <rect width="100%" height="100%" fill="#000" opacity=".35"></rect>
</svg>
